name analog
datacolumns 19
datarows 35
range 0.44 0.457
endheader
time	ground_force_vx	ground_force_vy	ground_force_vz	ground_force_px	ground_force_py	ground_force_pz	l_ground_force_vx	l_ground_force_vy	l_ground_force_vz	l_ground_force_px	l_ground_force_py	l_ground_force_pz	ground_torque_x	ground_torque_y	ground_torque_z	l_ground_torque_x	l_ground_torque_y	l_ground_torque_z
0.44	-0.0	-0.0	-0.0	15.534424781799316	91.31520080566406	-516.804443359375	-10.33575439453125	-77.0361099243164	-435.3687438964844	-35.47743606567383	15.84050464630127	75.12657165527344	-0.0	-0.0	-0.0	70742.0703125	-15826.1865234375	-7905.02001953125
0.4405	-0.0	-0.0	-0.0	17.381736755371094	89.62198638916016	-513.9793090820312	-9.8352632522583	-74.47496795654297	-430.3570251464844	-35.15718078613281	16.426807403564453	75.37500762939453	-0.0	-0.0	-0.0	70192.1015625	-16709.728515625	-7554.7421875
0.441	-0.0	-0.0	-0.0	19.033493041992188	87.68707275390625	-510.5956726074219	-8.5162353515625	-71.91368865966797	-423.1489868164063	-35.16284942626953	16.33687973022461	75.43246459960938	-0.0	-0.0	-0.0	69587.5703125	-17353.51953125	-6940.77099609375
0.4415	-0.0	-0.0	-0.0	19.893943786621094	85.67463684082031	-505.6285095214844	-7.357321262359619	-69.49222564697266	-415.8963928222656	-35.44611358642578	16.072711944580078	75.4547119140625	-0.0	-0.0	-0.0	68698.96875	-18139.435546875	-6339.4267578125
0.442	-0.0	-0.0	-0.0	20.31394386291504	83.60432434082031	-498.8963623046875	-6.773443222045898	-67.28451538085938	-408.4417419433594	-35.30446243286133	16.093618392944336	76.05386352539062	-0.0	-0.0	-0.0	67577.28125	-18656.869140625	-5785.3798828125
0.4425	-0.0	-0.0	-0.0	19.9310245513916	81.78466796875	-495.386474609375	-5.80316162109375	-65.43533325195312	-399.5894775390625	-35.24663543701172	16.374473571777344	74.65000915527344	-0.0	-0.0	-0.0	66708.171875	-18892.681640625	-5288.58740234375
0.443	-0.0	-0.0	-0.0	19.232542037963867	79.67719268798828	-491.72998046875	-5.917672157287598	-63.643287658691406	-393.3489990234375	-35.746490478515625	16.08347511291504	76.77626037597656	-0.0	-0.0	-0.0	66002.390625	-19427.70703125	-4637.470703125
0.4435	-0.0	-0.0	-0.0	19.08067321777344	77.32335662841797	-487.03515625	-5.526094913482666	-62.34981918334961	-386.3874816894531	-35.2781867980957	16.26322364807129	77.87061309814453	-0.0	-0.0	-0.0	65087.1953125	-19849.087890625	-4308.79443359375
0.444	-0.0	-0.0	-0.0	19.799541473388672	75.99161529541016	-482.9010009765625	-5.489611625671387	-60.52632522583008	-377.0631713867188	-35.3096809387207	16.03602409362793	77.22950744628906	-0.0	-0.0	-0.0	63550.80859375	-19982.908203125	-3845.93896484375
0.4445	-0.0	-0.0	-0.0	19.983154296875	74.57072448730469	-479.2651977539063	-5.729747772216797	-59.10808563232422	-368.6634521484375	-35.47846984863281	16.226213455200195	75.24710845947266	-0.0	-0.0	-0.0	62425.83984375	-20364.529296875	-3386.873046875
0.445	-0.0	-0.0	-0.0	20.42920684814453	73.71585083007812	-473.82330322265625	-5.082718849182129	-57.21737289428711	-358.6619873046875	-35.152252197265625	16.31119155883789	75.3506088256836	-0.0	-0.0	-0.0	60826.8671875	-20492.0625	-2857.13330078125
0.4455	-0.0	-0.0	-0.0	19.946887969970703	73.43856048583984	-466.7796936035156	-5.286496162414551	-54.74961853027344	-349.9145202636719	-35.50539016723633	16.226137161254883	76.13774108886719	-0.0	-0.0	-0.0	59340.73046875	-20331.033203125	-2478.131103515625
0.446	-0.0	-0.0	-0.0	19.33219718933105	73.08692932128906	-462.64642333984375	-5.207644462585449	-53.19093704223633	-340.4034729003906	-35.34088897705078	16.415714263916016	76.01455688476562	-0.0	-0.0	-0.0	58230.65625	-20404.501953125	-2023.9327392578125
0.4465	-0.0	-0.0	-0.0	17.99396324157715	72.70387268066406	-456.394775390625	-5.389794826507568	-51.04993438720703	-333.10955810546875	-35.121116638183594	16.126710891723633	75.36832427978516	-0.0	-0.0	-0.0	56770.94140625	-20597.294921875	-1817.4892578125
0.447	-0.0	-0.0	-0.0	17.155054092407227	72.22689056396484	-452.0334777832031	-5.970065593719482	-48.98286819458008	-324.5515441894531	-35.36743927001953	16.2799129486084	76.7713851928711	-0.0	-0.0	-0.0	55792.4453125	-20666.13671875	-1594.586669921875
0.4475	-0.0	-0.0	-0.0	15.084717750549316	71.50458526611328	-445.5709533691406	-5.938955307006836	-47.123497009277344	-318.2670288085937	-35.39421844482422	15.875303268432615	76.33119201660156	-0.0	-0.0	-0.0	54523.515625	-20471.08203125	-1377.6175537109375
0.448	-0.0	-0.0	-0.0	13.28333854675293	70.52018737792969	-438.7195739746094	-6.298465728759766	-45.07048034667969	-307.60260009765625	-35.206485748291016	16.284503936767578	76.05120849609375	-0.0	-0.0	-0.0	52830.96484375	-19874.189453125	-1212.884521484375
0.4485	-0.0	-0.0	-0.0	11.178117752075195	69.6955795288086	-432.292236328125	-6.564598083496094	-43.63091278076172	-300.1307373046875	-35.50638961791992	16.06879234313965	74.76972961425781	-0.0	-0.0	-0.0	51250.984375	-19483.59765625	-994.664306640625
0.449	-0.0	-0.0	-0.0	9.42076587677002	69.3702621459961	-426.3598937988281	-7.460505485534668	-42.65499496459961	-290.669189453125	-35.33609771728516	15.960354804992676	76.13982391357422	-0.0	-0.0	-0.0	49652.14453125	-18680.421875	-1055.8529052734375
0.4495	-0.0	-0.0	-0.0	7.95815372467041	68.11827087402344	-421.78656005859375	-9.199209213256836	-41.8336181640625	-280.6335754394531	-35.24247360229492	16.158958435058594	76.0178451538086	-0.0	-0.0	-0.0	47665.3515625	-18255.6171875	-1015.3797607421876
0.45	-0.0	-0.0	-0.0	6.869209289550781	67.70802307128906	-414.2473754882813	-10.62685203552246	-40.862117767333984	-267.9937438964844	-35.604469299316406	16.433095932006836	76.05023193359375	-0.0	-0.0	-0.0	45926.15234375	-17875.17578125	-1124.4639892578125
0.4505	-0.0	-0.0	-0.0	5.54986572265625	67.02197265625	-410.5182189941406	-12.419509887695312	-39.387351989746094	-258.5995483398437	-35.448692321777344	16.370441436767578	76.36962127685547	-0.0	-0.0	-0.0	44058.59765625	-17455.845703125	-1115.022705078125
0.451	-0.0	-0.0	-0.0	5.0889811515808105	65.63499450683594	-405.3118591308594	-12.48133373260498	-37.47115707397461	-249.8233642578125	-35.60057830810547	16.116313934326172	76.27869415283203	-0.0	-0.0	-0.0	42698.17578125	-17028.638671875	-931.6810302734376
0.4515	-0.0	-0.0	-0.0	4.425631523132324	64.25529479980469	-399.108642578125	-11.85637092590332	-35.24424743652344	-238.9566192626953	-35.305015563964844	16.018396377563477	76.2785415649414	-0.0	-0.0	-0.0	41129.12109375	-16708.619140625	-748.6611938476562
0.452	-0.0	-0.0	-0.0	4.821147441864014	63.12018966674805	-393.750732421875	-10.811243057250977	-33.67366027832031	-228.466552734375	-35.10246276855469	16.104564666748047	75.92747497558594	-0.0	-0.0	-0.0	39608.36328125	-16269.0205078125	-440.5740661621094
0.4525	-0.0	-0.0	-0.0	5.658666133880615	60.98130035400391	-387.3010559082031	-9.549941062927246	-31.991912841796875	-220.9981689453125	-35.21923828125	16.194534301757812	77.07352447509766	-0.0	-0.0	-0.0	37968.7578125	-15768.7685546875	-143.88108825683594
0.453	-0.0	-0.0	-0.0	6.37568473815918	58.8842887878418	-380.9586791992188	-8.338813781738281	-30.79361724853516	-213.21046447753903	-35.126190185546875	15.98695945739746	74.7528076171875	-0.0	-0.0	-0.0	36599.61328125	-15357.20703125	75.23997497558594
0.4535	-0.0	-0.0	-0.0	8.073790550231934	56.64909744262695	-374.7101135253906	-8.423992156982422	-29.910438537597656	-204.10487365722656	-35.33609771728516	16.222246170043945	76.61566925048828	-0.0	-0.0	-0.0	35086.71875	-14726.6533203125	177.0401611328125
0.454	-0.0	-0.0	-0.0	10.269519805908203	54.75005340576172	-369.0730590820313	-8.369544982910156	-28.758804321289062	-196.8940887451172	-35.219051361083984	16.402219772338867	75.8056640625	-0.0	-0.0	-0.0	33611.37109375	-14454.732421875	263.9955139160156
0.4545	-0.0	-0.0	-0.0	12.142598152160645	52.71352767944336	-362.2536926269531	-8.43426513671875	-27.55301094055176	-186.3261566162109	-35.34256362915039	16.16020965576172	75.9015121459961	-0.0	-0.0	-0.0	31998.619140625	-13897.091796875	303.0438232421875
0.455	-0.0	-0.0	-0.0	13.267977714538574	51.79117965698242	-355.7360534667969	-7.8032917976379395	-25.701610565185547	-175.59762573242188	-35.42555236816406	15.86569118499756	75.57577514648438	-0.0	-0.0	-0.0	30408.689453125	-13258.7802734375	451.20654296875
0.4555	-0.0	-0.0	-0.0	13.169183731079102	50.95499801635742	-346.6756286621094	-7.069441795349121	-23.75211334228516	-165.9295654296875	-35.60138702392578	16.222455978393555	76.38655090332031	-0.0	-0.0	-0.0	28709.69140625	-12289.9375	564.95947265625
0.456	-0.0	-0.0	-0.0	12.394137382507324	50.5984001159668	-341.0137023925781	-6.420894145965576	-21.608339309692383	-156.9977569580078	-35.3052864074707	15.691679000854492	76.7376480102539	-0.0	-0.0	-0.0	26936.994140625	-11793.130859375	543.3269653320312
0.4565	-0.0	-0.0	-0.0	10.284032821655272	49.73476409912109	-335.0461730957031	-6.329034805297852	-19.59846305847168	-148.474365234375	-35.40049743652344	16.18878746032715	76.37564086914062	-0.0	-0.0	-0.0	25194.5703125	-10993.9345703125	504.0293273925781
0.457	-0.0	-0.0	-0.0	8.290759086608887	48.81859588623047	-330.443359375	-6.442371845245361	-17.536754608154297	-138.95069885253906	-35.33327865600586	16.01459503173828	75.70710754394531	-0.0	-0.0	-0.0	23532.697265625	-10226.37890625	308.0399169921875
